<svg width="347" height="125" viewBox="0 0 347 125" fill="none" xmlns="http://www.w3.org/2000/svg">
<path d="M313.044 66.5986C310.412 66.5986 308.046 66.0184 305.949 64.8581C303.851 63.6532 302.178 61.8235 300.928 59.369C299.723 56.8699 299.121 53.6791 299.121 49.7966C299.121 45.8694 299.813 42.634 301.196 40.0903C302.579 37.5019 304.409 35.5829 306.685 34.3334C308.961 33.0392 311.438 32.3921 314.116 32.3921C315.677 32.3921 317.172 32.5483 318.601 32.8607C320.029 33.1731 321.3 33.6417 322.416 34.2664V25.5642C322.416 24.6271 322.26 23.9353 321.948 23.4891C321.68 23.0428 321.077 22.7304 320.14 22.5519L318.868 22.2841V21.6147L331.051 18.6694L331.788 19.2718L331.52 28.6435V61.3772C331.52 62.2698 331.676 63.0061 331.989 63.5863C332.301 64.1218 332.881 64.5011 333.729 64.7243L334.331 64.9251V65.5945L322.885 66.3308L322.282 63.921C321.077 64.7243 319.694 65.3714 318.132 65.8622C316.615 66.3531 314.919 66.5986 313.044 66.5986ZM316.927 64.1218C318.801 64.1218 320.519 63.564 322.081 62.4483V35.873C320.43 34.802 318.734 34.2664 316.994 34.2664C314.852 34.2664 313.022 35.516 311.505 38.0151C309.988 40.4696 309.229 44.3521 309.229 49.6627C309.229 54.9733 309.943 58.722 311.371 60.9087C312.799 63.0508 314.651 64.1218 316.927 64.1218Z" fill="white"/>
<path d="M279.9 65.5945V64.9251L280.703 64.6573C282.31 64.1218 283.113 63.0061 283.113 61.3103V25.4973C283.113 24.6047 282.935 23.9353 282.578 23.4891C282.221 22.9982 281.596 22.6412 280.703 22.418L279.833 22.2172V21.5478L292.083 18.6694L292.887 19.2718L292.619 28.6435V51.537C292.619 53.1882 292.619 54.8394 292.619 56.4906C292.663 58.0972 292.686 59.7037 292.686 61.3103C292.686 62.2028 292.864 62.9392 293.221 63.5193C293.578 64.0549 294.181 64.4565 295.029 64.7243L295.899 64.9251V65.5945H279.9Z" fill="white"/>
<path d="M263.62 32.3922C266.52 32.3922 268.997 32.9946 271.05 34.1995C273.103 35.3598 274.665 36.9664 275.736 39.0192C276.851 41.0274 277.409 43.3257 277.409 45.9141C277.409 46.405 277.387 46.9182 277.342 47.4537C277.298 47.9446 277.208 48.3909 277.075 48.7925H257.126C257.171 53.6122 258.019 57.0931 259.67 59.2352C261.366 61.3327 263.865 62.3814 267.167 62.3814C269.399 62.3814 271.206 62.0244 272.59 61.3103C273.973 60.5963 275.267 59.5476 276.472 58.1641L277.142 58.7666C275.758 61.2211 273.906 63.14 271.585 64.5235C269.309 65.9069 266.565 66.5986 263.352 66.5986C260.183 66.5986 257.372 65.9292 254.917 64.5904C252.463 63.207 250.544 61.2434 249.16 58.6997C247.777 56.1559 247.085 53.1213 247.085 49.5958C247.085 45.9364 247.889 42.8348 249.495 40.2911C251.102 37.7027 253.155 35.7392 255.654 34.4004C258.197 33.0616 260.853 32.3922 263.62 32.3922ZM263.419 33.731C262.125 33.731 261.009 34.1326 260.072 34.9359C259.179 35.6945 258.465 37.078 257.93 39.0862C257.439 41.0498 257.171 43.8389 257.126 47.4537H268.573C269.019 42.5894 268.841 39.0862 268.038 36.9441C267.234 34.802 265.695 33.731 263.419 33.731Z" fill="white"/>
<path d="M207.923 65.5945V64.9251L208.927 64.7243C210.712 64.2334 211.605 63.0731 211.605 61.2434C211.65 59.6368 211.672 57.9633 211.672 56.2229C211.672 54.4378 211.672 52.8759 211.672 51.5371V34.7351H207.923V33.9987L208.994 33.7979C210.779 33.4855 211.895 32.3922 212.341 30.5178C213.502 26.2783 215.688 23.1321 218.901 21.0793C222.115 19.0264 226.019 18 230.616 18C233.383 18 235.636 18.6025 237.377 19.8074C239.162 20.9677 240.055 22.4404 240.055 24.2254C240.055 25.4304 239.675 26.3898 238.917 27.1039C238.203 27.7733 237.221 28.108 235.971 28.108C234.632 28.108 233.561 27.7286 232.758 26.97C231.955 26.1667 231.263 25.2072 230.683 24.0916L229.143 21.1462C228.831 20.566 228.452 20.1644 228.005 19.9413C227.559 19.7181 227.068 19.7628 226.533 20.0751C223.096 21.8156 221.311 26.256 221.177 33.3963H235.436C236.774 33.3963 238.113 33.1731 239.452 32.7269L240.456 32.3922L241.326 33.1285L241.126 42.4332V51.8718C241.126 53.1213 241.103 54.594 241.059 56.2898C241.059 57.9856 241.081 59.6368 241.126 61.2434C241.126 63.0285 241.973 64.1888 243.669 64.7243L244.138 64.8582V65.5945H228.407V64.9251L229.076 64.6574C230.817 64.1218 231.687 62.9615 231.687 61.1765C231.732 59.5253 231.732 57.7848 231.687 55.9551C231.687 54.1254 231.687 52.6527 231.687 51.5371V47.0521C231.687 45.7133 231.665 44.2852 231.62 42.7679C231.62 41.206 231.62 39.711 231.62 38.2829C231.62 36.8548 231.598 35.6722 231.553 34.7351H221.177V51.5371C221.177 52.8312 221.155 54.3709 221.11 56.1559C221.11 57.8964 221.133 59.5699 221.177 61.1765C221.177 63.0062 222.07 64.1441 223.855 64.5904L225.127 64.9251V65.5945H207.923Z" fill="white"/>
<path d="M186.887 54.0139C183.808 54.0139 181.197 53.5007 179.055 52.4743V54.7502C179.055 56.1337 179.747 56.9593 181.13 57.227L193.715 59.5699C195.813 59.9716 197.709 60.5071 199.405 61.1765C201.101 61.8013 202.462 62.7161 203.488 63.921C204.515 65.0813 205.028 66.6879 205.028 68.7407C205.028 70.9275 204.314 72.9357 202.886 74.7654C201.458 76.6397 199.338 78.1347 196.527 79.2504C193.76 80.4107 190.301 80.9908 186.151 80.9908C182.581 80.9908 179.747 80.6115 177.649 79.8528C175.552 79.1388 174.057 78.2016 173.164 77.0413C172.317 75.881 171.893 74.6538 171.893 73.3596C171.893 71.753 172.428 70.1242 173.499 68.473C174.615 66.8664 175.976 65.5722 177.582 64.5904C176.199 64.0549 175.195 63.3632 174.57 62.5153C173.945 61.6674 173.633 60.7525 173.633 59.7707C173.633 58.8782 173.856 58.0526 174.302 57.294C174.793 56.4907 175.373 55.6874 176.043 54.8841L178.252 52.0726C174.994 50.1983 173.365 47.2529 173.365 43.2365C173.365 40.0234 174.503 37.4127 176.779 35.4045C179.1 33.3963 182.491 32.3922 186.954 32.3922C189.23 32.3922 191.216 32.6599 192.912 33.1955C194.652 33.731 196.08 34.4896 197.196 35.4714C198.624 35.2483 199.963 34.8913 201.212 34.4004C202.507 33.8649 203.667 33.1508 204.693 32.2583L205.63 32.9277V36.3417H198.066C199.673 38.1267 200.476 40.425 200.476 43.2365C200.476 46.3604 199.316 48.9487 196.995 51.0016C194.719 53.0098 191.35 54.0139 186.887 54.0139ZM186.82 52.6751C188.605 52.6751 189.899 51.9387 190.703 50.466C191.551 48.9934 191.975 46.5389 191.975 43.1026C191.975 39.6664 191.551 37.2565 190.703 35.8731C189.899 34.445 188.65 33.731 186.954 33.731C185.303 33.731 184.053 34.4673 183.205 35.94C182.358 37.3681 181.934 39.8002 181.934 43.2365C181.934 46.6728 182.313 49.1049 183.072 50.533C183.875 51.961 185.124 52.6751 186.82 52.6751ZM176.846 71.2175C176.846 73.8505 177.649 75.8364 179.256 77.1752C180.907 78.514 183.496 79.1834 187.021 79.1834C190.725 79.1834 193.514 78.581 195.389 77.376C197.263 76.1711 198.2 74.4753 198.2 72.2886C198.2 71.039 197.732 70.0349 196.794 69.2763C195.902 68.5176 194.362 67.9375 192.175 67.5358L180.059 65.2598C179.702 65.1706 179.345 65.0813 178.988 64.9921C178.363 65.8846 177.85 66.8887 177.449 68.0044C177.047 69.1647 176.846 70.2357 176.846 71.2175Z" fill="white"/>
<path d="M133.594 65.5945V64.9251L134.532 64.6573C136.094 64.2111 136.874 63.1177 136.874 61.3773V40.425C136.874 39.4432 136.718 38.7292 136.406 38.2829C136.094 37.792 135.491 37.4573 134.599 37.2788L133.594 37.011V36.3416L145.041 32.4591L145.711 33.1285L146.246 37.1449C147.808 35.7615 149.571 34.6235 151.534 33.731C153.498 32.8384 155.439 32.3922 157.358 32.3922C160.304 32.3922 162.557 33.1954 164.119 34.802C165.726 36.4086 166.529 38.863 166.529 42.1654V61.4442C166.529 63.1847 167.377 64.278 169.073 64.7243L169.675 64.9251V65.5945H153.877V64.9251L154.748 64.6573C156.309 64.1665 157.09 63.0731 157.09 61.3773V40.0233C157.09 37.1672 155.662 35.7392 152.806 35.7392C150.843 35.7392 148.701 36.721 146.38 38.6845V61.4442C146.38 63.1847 147.161 64.278 148.723 64.7243L149.325 64.9251V65.5945H133.594Z" fill="white"/>
<path d="M122.866 28.9112C121.348 28.9112 120.054 28.4427 118.983 27.5055C117.957 26.5237 117.444 25.2965 117.444 23.8238C117.444 22.3065 117.957 21.0792 118.983 20.1421C120.054 19.2049 121.348 18.7363 122.866 18.7363C124.383 18.7363 125.655 19.2049 126.681 20.1421C127.708 21.0792 128.221 22.3065 128.221 23.8238C128.221 25.2965 127.708 26.5237 126.681 27.5055C125.655 28.4427 124.383 28.9112 122.866 28.9112ZM114.967 65.5945V64.9251L115.904 64.6573C116.796 64.3896 117.399 63.9879 117.711 63.4524C118.068 62.9169 118.247 62.2029 118.247 61.3103V40.358C118.247 39.4209 118.068 38.7291 117.711 38.2829C117.399 37.792 116.796 37.4573 115.904 37.2788L114.967 37.078V36.4086L127.217 32.4591L127.886 33.1285L127.685 42.634V61.3773C127.685 62.2698 127.842 62.9838 128.154 63.5193C128.511 64.0549 129.113 64.4565 129.961 64.7243L130.631 64.9251V65.5945H114.967Z" fill="white"/>
<path d="M85.285 65.5945V64.9251L86.2891 64.6573C87.1816 64.3896 87.7841 63.9879 88.0965 63.4524C88.4535 62.9169 88.632 62.2252 88.632 61.3773V40.425C88.632 39.4432 88.4535 38.7292 88.0965 38.2829C87.7841 37.792 87.1816 37.4573 86.2891 37.2788L85.285 37.011V36.3416L96.7987 32.4591L97.4681 33.1285L98.0706 38.8854V39.4209C98.6953 38.1713 99.4986 37.0333 100.48 36.0069C101.507 34.9359 102.622 34.0657 103.827 33.3963C105.077 32.7269 106.304 32.3922 107.509 32.3922C109.205 32.3922 110.499 32.8607 111.392 33.7979C112.284 34.7351 112.73 35.9177 112.73 37.3457C112.73 38.863 112.284 40.0457 111.392 40.8936C110.544 41.6968 109.517 42.0985 108.312 42.0985C106.438 42.0985 104.787 41.1613 103.359 39.287L103.225 39.1531C102.779 38.5283 102.265 38.1936 101.685 38.149C101.105 38.0598 100.57 38.3275 100.079 38.9523C99.6325 39.3539 99.2532 39.8448 98.9408 40.425C98.673 40.9605 98.4053 41.5853 98.1375 42.2993V60.9756C98.1375 62.7607 98.9185 63.8764 100.48 64.3226L102.622 64.9251V65.5945H85.285Z" fill="white"/>
<path d="M46.5851 80.9908V80.3214L47.3884 80.0536C49.0396 79.6073 49.8652 78.5363 49.8652 76.8405V40.425C49.8652 39.4432 49.6867 38.7068 49.3297 38.216C49.0173 37.7251 48.4148 37.3904 47.5223 37.2118L46.5851 37.011V36.3416L57.965 32.4591L58.6344 33.1285L59.2369 35.2036C60.7095 34.3111 62.3384 33.6194 64.1235 33.1285C65.9532 32.6376 67.8275 32.3922 69.7465 32.3922C73.5844 32.3922 76.619 33.8648 78.8503 36.8102C81.1263 39.711 82.2643 43.8836 82.2643 49.328C82.2643 54.6833 81.0148 58.9005 78.5156 61.9797C76.0612 65.059 72.5803 66.5986 68.073 66.5986C64.5474 66.5986 61.5798 66.0854 59.1699 65.059V76.6396C59.1699 78.4247 59.9732 79.5404 61.5798 79.9867L62.8516 80.3214V80.9908H46.5851ZM64.8598 64.6573C67.0912 64.6573 68.8539 63.4971 70.1481 61.1765C71.4869 58.8559 72.1563 54.9956 72.1563 49.5958C72.1563 44.1959 71.5315 40.425 70.282 38.2829C69.0324 36.0962 67.2251 35.0028 64.8598 35.0028C63.2086 35.0028 61.3789 35.5383 59.3707 36.6094V63.5863C61.0666 64.3003 62.8963 64.6573 64.8598 64.6573Z" fill="white"/>
<path d="M26.8566 66.7995C24.4022 66.7995 21.9031 66.4871 19.3593 65.8623C16.8156 65.2821 14.6958 64.5012 13 63.5194L13.3347 54.4155H14.0041L16.0793 58.7666C16.704 60.0162 17.3734 61.1318 18.0875 62.1136C18.8015 63.0508 19.7833 63.7871 21.0328 64.3227C21.9254 64.7689 22.7733 65.0813 23.5766 65.2598C24.4245 65.3937 25.3616 65.4607 26.388 65.4607C29.1103 65.4607 31.2524 64.7243 32.8143 63.2516C34.4209 61.7789 35.2242 59.8823 35.2242 57.5617C35.2242 55.375 34.6886 53.6792 33.6176 52.4742C32.5466 51.2247 30.8284 50.0198 28.4632 48.8595L25.7186 47.6545C21.8807 45.9587 18.8684 44.0175 16.6817 41.8307C14.5396 39.5994 13.4686 36.654 13.4686 32.9946C13.4686 30.3616 14.138 28.0857 15.4768 26.1667C16.8602 24.2478 18.7569 22.7751 21.1667 21.7487C23.6212 20.7223 26.4773 20.209 29.7351 20.209C32.1003 20.209 34.3316 20.5214 36.4291 21.1462C38.5712 21.771 40.4232 22.6189 41.9851 23.6899L41.5835 31.7228H40.9141L38.1695 26.7023C37.4109 25.1403 36.6522 24.047 35.8936 23.4222C35.1349 22.7528 34.2647 22.2842 33.2829 22.0164C32.7027 21.8379 32.1672 21.7264 31.6763 21.6817C31.1854 21.5925 30.5607 21.5478 29.802 21.5478C27.526 21.5478 25.6071 22.2173 24.0451 23.5561C22.4832 24.8502 21.7022 26.613 21.7022 28.8443C21.7022 31.1203 22.3047 32.95 23.5096 34.3334C24.7145 35.6722 26.4773 36.8772 28.7979 37.9482L31.8772 39.287C36.1613 41.1613 39.2406 43.1695 41.1149 45.3116C42.9892 47.4091 43.9264 50.1313 43.9264 53.4783C43.9264 57.4055 42.4314 60.6186 39.4414 63.1177C36.496 65.5722 32.3011 66.7995 26.8566 66.7995Z" fill="white"/>
<path d="M322.29 96.9219L327.629 79.4169H332.314L324.433 102.061C324.251 102.545 324.015 103.072 323.725 103.641C323.434 104.21 323.053 104.748 322.581 105.257C322.121 105.777 321.546 106.195 320.856 106.51C320.166 106.837 319.33 107 318.35 107C317.962 107 317.587 106.964 317.224 106.891C316.873 106.83 316.54 106.764 316.225 106.691L316.207 103.35C316.328 103.362 316.473 103.374 316.643 103.386C316.824 103.398 316.97 103.405 317.079 103.405C317.805 103.405 318.41 103.314 318.894 103.132C319.379 102.963 319.772 102.684 320.075 102.297C320.39 101.909 320.656 101.389 320.874 100.735L322.29 96.9219ZM319.276 79.4169L323.943 94.1255L324.723 98.7378L321.691 99.5186L314.555 79.4169H319.276Z" fill="white"/>
<path d="M313.955 79.4169V82.6128H302.878V79.4169H313.955ZM306.074 74.6049H310.45V93.6352C310.45 94.2405 310.535 94.7065 310.704 95.0334C310.886 95.3482 311.134 95.56 311.449 95.669C311.763 95.7779 312.133 95.8324 312.556 95.8324C312.859 95.8324 313.15 95.8142 313.428 95.7779C313.706 95.7416 313.93 95.7053 314.1 95.669L314.118 99.0102C313.755 99.1191 313.331 99.216 312.847 99.3007C312.375 99.3854 311.83 99.4278 311.213 99.4278C310.208 99.4278 309.318 99.2523 308.543 98.9012C307.768 98.538 307.163 97.9509 306.727 97.1398C306.292 96.3287 306.074 95.2513 306.074 93.9076V74.6049Z" fill="white"/>
<path d="M300.898 71.1729V99.0646H296.503V71.1729H300.898Z" fill="white"/>
<path d="M287.986 95.1242V85.7543C287.986 85.0522 287.859 84.4469 287.605 83.9384C287.351 83.43 286.963 83.0366 286.443 82.7581C285.934 82.4797 285.293 82.3405 284.518 82.3405C283.804 82.3405 283.186 82.4615 282.666 82.7036C282.145 82.9458 281.74 83.2726 281.449 83.6842C281.159 84.0958 281.013 84.5619 281.013 85.0824H276.655C276.655 84.3077 276.843 83.5571 277.218 82.8308C277.593 82.1044 278.138 81.4567 278.852 80.8878C279.567 80.3188 280.42 79.8709 281.413 79.544C282.405 79.2172 283.519 79.0537 284.754 79.0537C286.231 79.0537 287.538 79.3019 288.676 79.7982C289.826 80.2946 290.728 81.0451 291.382 82.0499C292.048 83.0426 292.381 84.2895 292.381 85.7906V94.525C292.381 95.4208 292.441 96.2258 292.562 96.9401C292.695 97.6422 292.883 98.2535 293.125 98.7741V99.0646H288.64C288.434 98.5925 288.271 97.9933 288.15 97.2669C288.041 96.5285 287.986 95.8142 287.986 95.1242ZM288.622 87.1162L288.658 89.8219H285.517C284.706 89.8219 283.991 89.9005 283.374 90.0579C282.756 90.2032 282.242 90.4211 281.83 90.7116C281.419 91.0022 281.11 91.3532 280.904 91.7648C280.698 92.1764 280.596 92.6425 280.596 93.1631C280.596 93.6836 280.717 94.1618 280.959 94.5976C281.201 95.0213 281.552 95.3542 282.012 95.5963C282.484 95.8384 283.053 95.9595 283.719 95.9595C284.615 95.9595 285.396 95.7779 286.061 95.4147C286.739 95.0395 287.272 94.5855 287.659 94.0528C288.047 93.5081 288.253 92.9936 288.277 92.5093L289.693 94.4523C289.548 94.9487 289.3 95.4813 288.949 96.0503C288.598 96.6193 288.137 97.164 287.569 97.6846C287.012 98.193 286.34 98.6107 285.553 98.9375C284.778 99.2644 283.882 99.4278 282.865 99.4278C281.582 99.4278 280.438 99.1736 279.433 98.6651C278.429 98.1446 277.642 97.4485 277.073 96.5769C276.504 95.6932 276.219 94.6944 276.219 93.5807C276.219 92.5396 276.413 91.6196 276.8 90.8206C277.2 90.0095 277.781 89.3316 278.544 88.7868C279.318 88.242 280.263 87.8304 281.376 87.552C282.49 87.2615 283.761 87.1162 285.19 87.1162H288.622Z" fill="white"/>
<path d="M266.377 99.4278C264.924 99.4278 263.61 99.1917 262.436 98.7196C261.274 98.2354 260.281 97.5635 259.458 96.704C258.647 95.8445 258.024 94.8337 257.588 93.6715C257.152 92.5093 256.934 91.2564 256.934 89.9126V89.1863C256.934 87.6489 257.158 86.2567 257.606 85.0098C258.054 83.7629 258.677 82.6976 259.476 81.8139C260.275 80.918 261.22 80.2341 262.309 79.7619C263.399 79.2898 264.579 79.0537 265.85 79.0537C267.254 79.0537 268.483 79.2898 269.536 79.7619C270.589 80.2341 271.461 80.8999 272.151 81.7594C272.853 82.6068 273.374 83.6176 273.713 84.7919C274.064 85.9662 274.239 87.2615 274.239 88.6779V90.5482H259.059V87.4067H269.918V87.0617C269.893 86.2749 269.736 85.5364 269.445 84.8464C269.167 84.1563 268.737 83.5995 268.156 83.1758C267.575 82.7521 266.8 82.5402 265.832 82.5402C265.105 82.5402 264.458 82.6976 263.889 83.0123C263.332 83.315 262.866 83.7568 262.491 84.3379C262.115 84.919 261.825 85.6211 261.619 86.4443C261.425 87.2554 261.328 88.1694 261.328 89.1863V89.9126C261.328 90.7722 261.443 91.5711 261.673 92.3096C261.916 93.0359 262.267 93.6715 262.727 94.2163C263.187 94.761 263.744 95.1908 264.397 95.5055C265.051 95.8082 265.795 95.9595 266.631 95.9595C267.684 95.9595 268.622 95.7476 269.445 95.3239C270.269 94.9002 270.983 94.301 271.588 93.5262L273.894 95.7597C273.471 96.3771 272.92 96.9703 272.242 97.5393C271.564 98.0962 270.735 98.5501 269.754 98.9012C268.786 99.2523 267.66 99.4278 266.377 99.4278Z" fill="white"/>
<path d="M250.069 83.1576V99.0646H245.693V79.4169H249.87L250.069 83.1576ZM256.08 79.2898L256.044 83.3574C255.777 83.3089 255.487 83.2726 255.172 83.2484C254.869 83.2242 254.567 83.2121 254.264 83.2121C253.513 83.2121 252.854 83.321 252.285 83.5389C251.716 83.7447 251.238 84.0474 250.85 84.4469C250.475 84.8343 250.184 85.3064 249.979 85.8633C249.773 86.4201 249.652 87.0436 249.615 87.7336L248.617 87.8062C248.617 86.5714 248.738 85.4274 248.98 84.3742C249.222 83.321 249.585 82.3949 250.069 81.596C250.566 80.797 251.183 80.1735 251.922 79.7256C252.672 79.2777 253.538 79.0537 254.518 79.0537C254.785 79.0537 255.069 79.078 255.372 79.1264C255.686 79.1748 255.922 79.2293 256.08 79.2898Z" fill="white"/>
</svg>
